/* XPM */
static char *image_xpm[] = {
/* width height ncolors chars_per_pixel */
"16 16 124 2",
"   c #406b80",
" . c #628291",
" + c #ededed",
" @ c #bfcdd3",
" # c #a2c3d4",
" $ c #5c8192",
" % c #c6d1d6",
" & c #e6fcfd",
" * c #9e9e9f",
" = c #b4cbd6",
" - c #a5bcc7",
" ; c #92918f",
" > c #b4c9d1",
" , c #e2e3e1",
" ' c #f9f9f9",
" ) c #6dabc8",
" ! c #9c9b9a",
" ~ c #435a66",
" { c #7eb9d5",
" ] c #dcddde",
" ^ c #6d7475",
" / c #b7cdd7",
" ( c #e2e8eb",
" _ c #a1a6a8",
" : c #ffffff",
" < c #8eb7c9",
" [ c #95c3d8",
" } c #bccacf",
" | c #e6fcfe",
" 1 c #f3f8fa",
" 2 c #c0deed",
" 3 c #e3f3f9",
" 4 c #c1dfed",
" 5 c #3b5e6f",
" 6 c #e0eff6",
" 7 c #d8d7d6",
" 8 c #6091a9",
" 9 c #a1c9da",
" 0 c #416b80",
" a c #a5b2b8",
" b c #a3c4d5",
" c c #686767",
" d c #48748a",
" e c #a9e0ed",
" f c #d2e0e6",
" g c #43545c",
" h c #121212",
" i c #bcbbba",
" j c #c2d2d7",
" k c #8bc3dd",
" l c #bbccd4",
" m c #cfcfcf",
" n c #e7edef",
" o c #e9e9ea",
" p c #627f8e",
" q c #fcfcfb",
" r c #3a4245",
" s c #eff6fa",
" t c #65afd3",
" u c #f6f6f6",
" v c #3d3c3d",
" w c #45474a",
" x c #f2f4f4",
" y c #7bb7d5",
" z c #bdbcba",
" A c #909ea5",
" B c #dde5e8",
" C c #72a5be",
" D c #8498a2",
" E c #7ea3b5",
" F c #6abfeb",
" G c #b0ecfd",
" H c #e1e9ec",
" I c #f3f5f6",
" J c #e6ebee",
" K c #515e66",
" L c #dfe6e9",
" M c #9ca1a4",
" N c #a0d0e5",
" O c #f9fafb",
" P c #33647d",
" Q c #d3e9f3",
" R c #fbfbfb",
" S c #d6d6d6",
" T c #c8cfd3",
" U c #dde8ed",
" V c #fdfdfd",
" W c #6bc0ec",
" X c #e9f2f5",
" Y c #b0ebfd",
" Z c #f6f6f5",
" ` c #588ba5",
".  c #fefefe",
".. c #87a6b6",
".+ c #e8ecef",
".@ c #bab9b8",
".# c #444444",
".$ c #dcdcdb",
".% c #7f9fae",
".& c #eef1f2",
".* c #b4b5b2",
".= c #dae3e7",
".- c #454549",
".; c #a1a1a1",
".> c #f2f5f6",
"., c #81807c",
".' c #284e61",
".) c #547788",
".! c #4d7b93",
".~ c #ebebec",
".{ c #78abc4",
".] c #c4d8df",
".^ c #626e75",
"./ c #fbfdfe",
".( c #e2ebef",
"._ c #d6e9f2",
".: c #aacfd5",
".< c #5a5b5b",
".[ c #95cce4",
".} c #fcfcfc",
".| c #686768",
".1 c #efefef",
".2 c #51798c",
".3 c #fdfefe",
" : : : : : : : : : : : : :.& T q",
" I ( J.+ O : : : : :.> p 5.' D :",
" x P 0  .% : : : : :.. ~ r d I :",
" : b.! g C H : : : s.{.*.2 # : :",
" :./ W E.  X.3 : : 6 : a F./ : :",
" : : | e 4 : 1 : R V n.: & : : :",
" : : : G { u :.} '.} - Y : : : :",
" 3 [.] k ) < 2._ N > t y 9.[ Q :",
" U % L / ` $ l B.( A 8 =.= j f :",
" : : : : }.) ].~ o . @ : : : : :",
" : : : : V M * ,.; _ V : : : : :",
" : : : : S c.^ ^ K.| m : : : : :",
" : : :.1.# ;.-.< w ! v + : : : :",
" : : :.$.@ Z i h z ' i 7 : : : :",
" : : : : : : :., : : : : : : : :",
" : : : : : : : : : : : : : : : :",
};