/* XPM */
static char *image_xpm[] = {
/* width height ncolors chars_per_pixel */
"32 32 256 2",
"   c #406b80",
" . c #60808f",
" + c #22546d",
" @ c #dde2e3",
" # c #94a7b0",
" $ c #dbdbdc",
" % c #403f3e",
" & c #3ba2d5",
" * c #f4f4f3",
" = c #c0bfbf",
" - c #b0d0df",
" ; c #f0f1f0",
" > c #78b6d0",
" , c #424240",
" ' c #2f8bb9",
" ) c #6e6d6d",
" ! c #89ceec",
" ~ c #355768",
" { c #2c6f92",
" ] c #91928f",
" ^ c #c6ecff",
" / c #898788",
" ( c #3d5460",
" _ c #f9f9f9",
" : c #498aaa",
" < c #bcdbea",
" [ c #aaeefd",
" } c #12242d",
" | c #dededd",
" 1 c #c3dbe4",
" 2 c #ebeef0",
" 3 c #f3f3f3",
" 4 c #888785",
" 5 c #72a5ba",
" 6 c #b1c5cf",
" 7 c #95c4d9",
" 8 c #ffffff",
" 9 c #6cc6f1",
" 0 c #8eb9ce",
" a c #256281",
" b c #5994b1",
" c c #b9d5e2",
" d c #636f74",
" e c #dfecf3",
" f c #4e8caa",
" g c #42545e",
" h c #121720",
" i c #282728",
" j c #97cbe6",
" k c #396a83",
" l c #fafdfe",
" m c #204b60",
" n c #467389",
" o c #ecece9",
" p c #617883",
" q c #d5d5d5",
" r c #1f272d",
" s c #869aa5",
" t c #8dcae7",
" u c #adc9d3",
" v c #708691",
" w c #6f7f84",
" x c #629cb6",
" y c #94bacb",
" z c #777574",
" A c #22546c",
" B c #feffff",
" C c #91b1c1",
" D c #b4b3b1",
" E c #b0d2e3",
" F c #6a8491",
" G c #7cbdda",
" H c #84a4b4",
" I c #9ea09f",
" J c #c3c8ca",
" K c #868485",
" L c #d9fff6",
" M c #e5eff4",
" N c #adbbc1",
" O c #39687e",
" P c #797977",
" Q c #407c9a",
" R c #bcf1fa",
" S c #8b8b8c",
" T c #b5c3c8",
" U c #b8b7b7",
" V c #b2b1ae",
" W c #508fac",
" X c #98d4ee",
" Y c #51636d",
" Z c #e6ebed",
" ` c #80878b",
".  c #255f7c",
".. c #7bd1ff",
".+ c #dfe9ed",
".@ c #4db4e9",
".# c #5ba4c6",
".$ c #121212",
".% c #2b6481",
".& c #3185af",
".* c #75878f",
".= c #fafaf9",
".- c #55879f",
".; c #959795",
".> c #205169",
"., c #5dc4fc",
".' c #9cb5c1",
".) c #b2bfc6",
".! c #afc7d2",
".~ c #b2b1b1",
".{ c #8cb4c8",
".] c #678ea2",
".^ c #c3d2d9",
"./ c #edf6fa",
".( c #3e3d3b",
"._ c #4c6c7b",
".: c #576268",
".< c #ecfffc",
".[ c #6caac8",
".} c #436f85",
".| c #bbbab6",
".1 c #131a1d",
".2 c #c3cdd2",
".3 c #92a3ab",
".4 c #618699",
".5 c #4487a8",
".6 c #5f5f60",
".7 c #444343",
".8 c #a7d9ef",
".9 c #747373",
".0 c #7596a7",
".a c #5e7b8a",
".b c #e6e6e5",
".c c #5e7c8b",
".d c #dad9d6",
".e c #c4c3c3",
".f c #cfd9de",
".g c #657177",
".h c #7493a3",
".i c #747d7f",
".j c #edf1f2",
".k c #a0cee2",
".l c #63b9e0",
".m c #383637",
".n c #abaaab",
".o c #3b393a",
".p c #98cae1",
".q c #89adbd",
".r c #a2cadd",
".s c #ccd5da",
".t c #e1e1e3",
".u c #aacfe2",
".v c #9aaeb6",
".w c #244d61",
".x c #53a4c8",
".y c #578ca5",
".z c #979a9c",
".A c #d8d9da",
".B c #525c61",
".C c #5bb9e9",
".D c #fbfbfb",
".E c #85c5e2",
".F c #abdcf2",
".G c #c2c1bd",
".H c #131313",
".I c #253a46",
".J c #37596a",
".K c #e7ecee",
".L c #d0dadf",
".M c #fdfdfd",
".N c #f6fafc",
".O c #d6dee1",
".P c #565555",
".Q c #fafafa",
".R c #97d4f0",
".S c #2c6886",
".T c #6c848f",
".U c #cadce4",
".V c #95a0a3",
".W c #80b3cd",
".X c #3d4046",
".Y c #a9a8a5",
".Z c #bdcad0",
".` c #3c4446",
"+  c #a4b3b8",
"+. c #a2c1d0",
"++ c #f5f6f6",
"+@ c #f6f5f6",
"+# c #b2c6d0",
"+$ c #fefefe",
"+% c #272626",
"+& c #e0dfe0",
"+* c #456676",
"+= c #e2eaef",
"+- c #bbeafa",
"+; c #676767",
"+> c #acb4b8",
"+, c #b2cad5",
"+' c #e2f2f9",
"+) c #869092",
"+! c #bfe4f5",
"+~ c #4c4f4f",
"+{ c #7e7d7c",
"+] c #72abc4",
"+^ c #747271",
"+/ c #6a99b1",
"+( c #1e4456",
"+_ c #e2e5e4",
"+: c #7e8183",
"+< c #4386a6",
"+[ c #5d92ab",
"+} c #71bfe2",
"+| c #6c8c9c",
"+1 c #646263",
"+2 c #e2e6e9",
"+3 c #33393b",
"+4 c #c0fbf8",
"+5 c #81bad4",
"+6 c #c2dde9",
"+7 c #c8d1d6",
"+8 c #6b96ad",
"+9 c #34525f",
"+0 c #b2bbbd",
"+a c #b7b6b6",
"+b c #596c76",
"+c c #21566f",
"+d c #ebebec",
"+e c #525353",
"+f c #a9cada",
"+g c #eaf4f9",
"+h c #f2f4f5",
"+i c #3f4f58",
"+j c #73aec9",
"+k c #8f999b",
"+l c #d8dcdd",
"+m c #678591",
"+n c #6e6e6e",
"+o c #648a9d",
"+p c #a3defe",
"+q c #9dbecd",
"+r c #346984",
"+s c #6795aa",
"+t c #e9e9e8",
"+u c #b9bbba",
"+v c #5c6c73",
"+w c #9ab3bd",
"+x c #a2a2a2",
"+y c #8cbdd5",
"+z c #6fb9de",
"+A c #c5fafa",
"+B c #7bb1cb",
"+C c #fcfcfc",
"+D c #adacaa",
"+E c #dde3e6",
"+F c #fefefd",
"+G c #fdfefe",
" 8 8 8 8 8 8 8 8 8 8 8 8 8 8 8 8 8 8 8 8 8 8 8 8 8 8 8 8 8 8.M 8",
" 8 8 8 8 8 8 8 8 8 8 8 8 8 8 8 8 8 8 8 8 8 8 8 8 8 8 2.2.3.* * 8",
" 8 8 8 8 8 8 8 8 8 8 8 8 8 8 8 8 8 8 8 8 8 8 N s.a ~+(+(+(+> 8 8",
" 8.s.2+7.s.f.L.f Z 8 8 8 8 8 8 8 8 8 8 8 8.Z m m.w.J+* m._ _ 8 8",
" 8.2 A A A A ++c.} * 8 8 8 8 8 8 8 8 8 8+$ n O.:.`+3+| A+7 8 8 8",
" 8+F+o. +o.c.c.4 a.'+C 8 8 8 8 8 8 8 8 8+, a F.1.1.g.%.]+$ 8 8 8",
" 8 8+= {+/.I }+i :+< @ 8 8 8 8 8 8 8 8+G.5 :.; ].`+8 {.+ 8 8 8 8",
" 8 8 8.W.&.0 ( `.!+y+f.Q 8 8 8 8 8 8 8 E+y+6.Q+u v.&+B 8 8 8 8 8",
" 8 8 8./ &+z  .O 8 8+'.+ 8 8 8 8 8 8 l < 8 8.M+v+z &+g 8 8 8 8 8",
" 8 8 8 8+p.,+y.-.Q 8 8 2.N 8 8 8 8 8 e+$ 8 8+0 H.,+p 8 8 8 8 8 8",
" 8 8 8 8 l [ R.x+, 8 8+$ M 8 8 8 8.Q _ 8 8+++m R [ l 8 8 8 8 8 8",
" 8 8 8 8 8.< L+- 9+d 8 8.N l 8 8+$ 3 8 8+C 6 u L.< 8 8 8 8 8 8 8",
" 8 8 8 8 8 B+4+A.l -++ 8 8+C 8 8 ; 8 8 8+h+|+A+4+G 8 8 8 8 8 8 8",
" 8 8 8 8 8 8 ^.. j W.b.M 8+$.D * _.Q _ _+  0.. ^ 8 8 8 8 8 8 8 8",
" 8 X c+!.v.8+6.C G+5.^ G.E.E.k <.E+} t 1.p.C.@+5.U !.R.R.F 8 8 8",
" 8./+j x+_./+].r b.#.]+q ; 8 8 8 8 0.M.V.[ '.u 5 T > 7 7.r 8 8 8",
" 8 y+k.{+w 8.{+s Q+< .+/ C.q.'+$+$ y ;+v+[ f+.+[ @+q+q.'.y 8 8 8",
"+$ Z _+C.K+F.Q ; 6+r.0+9+l+E+2.Q.D+++).h.S+# Z+h++ Z.K.K+h 8 8 8",
" 8 8 8 8 8 8 8 8 _.} O p J+++@+@+@ _ w k n+C 8 8 8 8 8 8 8 8 8 8",
" 8 8 8 8 8 8 8 8 8 N.>.v $.A.t+& $ $.Z A.) 8 8 8 8 8 8 8 8 8 8 8",
" 8 8 8 8 8 8 8 8 8 _.T+u.n.~ o |+a.n U #.= 8 8 8 8 8 8 8 8 8 8 8",
" 8 8 8 8 8 8 8 8 8+C.e K K.z.b 8 I / K+a 8 8 8 8 8 8 8 8 8 8 8 8",
" 8 8 8 8 8 8 8 8 8+&.9+n S d.i.A.B+:+n+n q 8 8 8 8 8 8 8 8 8 8 8",
" 8 8 8 8 8 8 8 8.j.9.P+; g+b r+~ Y.I ).P+1 ; 8 8 8 8 8 8 8 8 8 8",
" 8 8 8 8 8 8 8 _ S.m.o.Y.X h+;.6 h.X+D.7.m )+$ 8 8 8 8 8 8 8 8 8",
" 8 8 8 8 8 8 8 = i+% ) * D.H+e+e.H D+C+{+%+%+x 8 8 8 8 8 8 8 8 8",
" 8 8 8 8 8 8+t 4+^ z.d 8.M.(.$.$ %+C 8.b+{.9 P+t 8 8 8 8 8 8 8 8",
" 8 8 8 8 8 8 8 8 8 8 8 8 8 D.$.$ V 8 8 8 8 8 8 8 8 8 8 8 8 8 8 8",
" 8 8 8 8 8 8 8 8 8 8 8 8 8 8 ,.(+F 8 8 8 8 8 8 8 8 8 8 8 8 8 8 8",
" 8 8 8 8 8 8 8 8 8 8 8 8 8 8.G.| 8 8 8 8 8 8 8 8 8 8 8 8 8 8 8 8",
" 8 8 8 8 8 8 8 8 8 8 8 8 8 8 8 8 8 8 8 8 8 8 8 8 8 8 8 8 8 8 8 8",
" 8 8 8 8 8 8 8 8 8 8 8 8 8 8 8 8 8 8 8 8 8 8 8 8 8 8 8 8 8 8 8 8",
};