/* XPM */
static char *image_xpm[] = {
/* width height ncolors chars_per_pixel */
"64 64 254 2",
"   c #a6bac5",
" . c #bababa",
" + c #bec9cf",
" @ c #c7d3d7",
" # c #547484",
" $ c #cbe8f5",
" % c #dbdcdb",
" & c #252425",
" * c #20495d",
" = c #509cc1",
" - c #2d5569",
" ; c #ccd7db",
" > c #86c8ea",
" , c #337595",
" ' c #b8e5fb",
" ) c #f2f1ef",
" ! c #9bd9f6",
" ~ c #abacac",
" { c #f2f2f2",
" ] c #363839",
" ^ c #35718f",
" / c #70bfe1",
" ( c #9eb3bc",
" _ c #f9f9f9",
" : c #35799a",
" < c #9d9b97",
" [ c #97adb7",
" } c #ecf1f4",
" | c #3b4950",
" 1 c #a3defd",
" 2 c #47bbf9",
" 3 c #436c80",
" 4 c #464648",
" 5 c #46738c",
" 6 c #1f4659",
" 7 c #204d64",
" 8 c #99e1ff",
" 9 c #5ec2ed",
" 0 c #99a4a8",
" a c #a4a39e",
" b c #232223",
" c c #c9cfd2",
" d c #284857",
" e c #64c7fd",
" f c #5d5c5c",
" g c #50b2e3",
" h c #ffffff",
" i c #77929e",
" j c #7aa5b9",
" k c #446778",
" l c #e9e9e5",
" m c #d4d4d4",
" n c #c2ced5",
" o c #74c1e4",
" p c #1b3847",
" q c #b1dff7",
" r c #959da2",
" s c #2e2e2b",
" t c #97c5da",
" u c #4d8baa",
" v c #898b8b",
" w c #bcf7fd",
" x c #a9cad8",
" y c #13191c",
" z c #5e93ac",
" A c #637479",
" B c #99bfd2",
" C c #a1a0a0",
" D c #1d4254",
" E c #434242",
" F c #e5e9eb",
" G c #7495a5",
" H c #141516",
" I c #e2e4e4",
" J c #235770",
" K c #fbfbfa",
" L c #4aa2c9",
" M c #43819d",
" N c #e6e6e8",
" O c #353532",
" P c #6ca3bd",
" Q c #89a8b7",
" R c #2c7396",
" S c #c8dae3",
" T c #eafdfc",
" U c #b2b1ab",
" V c #6a6969",
" W c #eeeeee",
" X c #b7bec1",
" Y c #256483",
" Z c #386c87",
" ` c #67bbe0",
".  c #373d46",
".. c #a8abab",
".+ c #29617e",
".@ c #286f93",
".# c #598ea8",
".$ c #5b737d",
".% c #454e54",
".& c #66818f",
".* c #425863",
".= c #5c6b73",
".- c #e2fff9",
".; c #3e3c3d",
".> c #83949c",
"., c #2a789e",
".' c #a5a5a3",
".) c #111213",
".! c #121212",
".~ c #386479",
".{ c #d9e4e9",
".] c #698897",
".^ c #626162",
"./ c #cce3ed",
".( c #a4b5bc",
"._ c #d5ebf7",
".: c #6e9baf",
".< c #172833",
".[ c #73797a",
".} c #687d87",
".| c #9bcde5",
".1 c #949a9b",
".2 c #3fb5f3",
".3 c #fffefe",
".4 c #3b4449",
".5 c #aad9ed",
".6 c #f6f6f6",
".7 c #c7fff3",
".8 c #28414e",
".9 c #13242d",
".0 c #b8b9b6",
".a c #95bacb",
".b c #97b7c7",
".c c #215169",
".d c #2b7da5",
".e c #646768",
".f c #28698b",
".g c #78adc6",
".h c #679db6",
".i c #2f89b5",
".j c #3c7c9b",
".k c #566568",
".l c #3898c7",
".m c #9f9d9a",
".n c #7b878c",
".o c #313030",
".p c #f3f4f3",
".q c #1b272d",
".r c #8cadbd",
".s c #345463",
".t c #6aa9c5",
".u c #84adc2",
".v c #b8ced7",
".w c #c6fbfc",
".x c #283b43",
".y c #2b6985",
".z c #686e71",
".A c #aab4b8",
".B c #d0fff4",
".C c #588399",
".D c #22556e",
".E c #1c333e",
".F c #7b7b7a",
".G c #cbcccd",
".H c #34a0d4",
".I c #307ea5",
".J c #75b7d6",
".K c #868887",
".L c #45b9f6",
".M c #7e7d7d",
".N c #377596",
".O c #2a292a",
".P c #768b96",
".Q c #2a6583",
".R c #2b5f7b",
".S c #545656",
".T c #e5f5f9",
".U c #a7aeb1",
".V c #fdfdfd",
".W c #56b2de",
".X c #e5e6e5",
".Y c #e2e2e1",
".Z c #b5b4b5",
".` c #235972",
"+  c #698ea2",
"+. c #a4d2e8",
"++ c #727272",
"+@ c #8d8c8c",
"+# c #f5f4f5",
"+$ c #b8c3c9",
"+% c #589bbb",
"+& c #46b1e6",
"+* c #47addc",
"+= c #f3f7f9",
"+- c #7b9cac",
"+; c #fefefe",
"+> c #6db7d9",
"+, c #21546d",
"+' c #3583a8",
"+) c #191b1d",
"+! c #e9eaea",
"+~ c #d8dee2",
"+{ c #e8eef1",
"+] c #949393",
"+^ c #062435",
"+/ c #4cb1dd",
"+( c #39a9e0",
"+_ c #c1c0bc",
"+: c #141d22",
"+< c #545d63",
"+[ c #2f3437",
"+} c #72ccff",
"+| c #5ba5c6",
"+1 c #889ca6",
"+2 c #c5c8c8",
"+3 c #4f4d4e",
"+4 c #245c79",
"+5 c #f8f8f6",
"+6 c #485359",
"+7 c #838383",
"+8 c #3c5f70",
"+9 c #447892",
"+0 c #338eba",
"+a c #4394b9",
"+b c #3e90b7",
"+c c #d2dadc",
"+d c #42413d",
"+e c #236c90",
"+f c #84d1f6",
"+g c #0a1525",
"+h c #b4daec",
"+i c #3397c9",
"+j c #8c9498",
"+k c #91daff",
"+l c #ebeceb",
"+m c #479bc3",
"+n c #b7d7e7",
"+o c #8ca2ad",
"+p c #ced8dc",
"+q c #6f6e6d",
"+r c #86bad3",
"+s c #d1d2cc",
"+t c #b2fafb",
"+u c #ecf5f9",
"+v c #89b5cb",
"+w c #5cc7f9",
"+x c #d5d8d7",
"+y c #fafcfc",
"+z c #abf5fe",
"+A c #2d83ad",
"+B c #7ccfff",
"+C c #f4fbfb",
"+D c #ddf3fc",
"+E c #fdfefe",
" h h h h h h h h h h h h h h h h h h h h h h h h h h h h h h h h h h h h h h h h h h h h h h h h h h h h h h h h h h h h h h h h",
" h h h h h h h h h h h h h h h h h h h h h h h h h h h h h h h h h h h h h h h h h h h h h h h h h h h h h h h h h h h h.6 h h h",
" h h h h h h h h h h h h h h h h h h h h h h h h h h h h h h h h h h h h h h h h h h h h h h h h h h h h h h h h h I  +1 m h h h",
" h h h h h h h h h h h h h h h h h h h h h h h h h h h h h h h h h h h h h h h h h h h h h h h h h h h h+{ + 0.}.s D D.n K h h h",
" h h h h h h h h h h h h h h h h h h h h h h h h h h h h h h h h h h h h h h h h h h h h h h.6+c X+1.}.s D D D D D D.s % h h h h",
" h h h h h h h h h h h h h h h h h h h h h h h h h h h h h h h h h h h h h h h h h h h+E.&+8 6 6 6 6 6 6 6 6 6 6 6 6 r+; h h h h",
" h h+;+;+; h h h h h h h h h h h h h h h h h h h h h h h h h h h h h h h h h h h h h h   * * * * * * * * * * * * * k l h h h h h",
" h h+2 i+1+o+o+o ( [ [ ( (.( ( ( (.p h h h h h h h h h h h h h h h h h h h h h h h h.V.~ 7 7 7 7.c -+8.$.> # 7 7.c.A h h h h h h",
" h h ) #.c.c.c.c.c.c.c.c.c.c.c+,+, [.p h h h h h h h h h h h h h h h h h h h h h h h.(+,+,.D.P.n.[.e+6.4 ~ 3.c.c # { h h h h h h",
" h h h+2 J J J J J J J J J J.`.`.`.~ I+; h h h h h h h h h h h h h h h h h h h h h _.~.`.`+-+<+: y y y ]   J J J c h h h h h h h",
" h h h+5.]+4+4+4+4.R.R.R.R.+.++4+4+4.r % h h h h h h h h h h h h h h h h h h h h h.b+4+4.Q.A+: y y y y.. Z+4+4+  K h h h h h h h",
" h h h h+~.Q Y Y.:.G r+j+j.1...r Y Y ^ @.p h h h h h h h h h h h h h h h h h h h+= ^ Y Y.r.%+: y y y.4   Y Y.Q F h h h h h h h h",
" h h h h.V Q.f.f.N+$.<.9.9.9.< 0.j.@.@.u c h h h h h h h h h h h h h h h h h h h+v.@.@ :.U+)+) s+[+:.A.N.f.f j+; h h h h h h h h",
" h h h h h+= : R R.a.$.<.9.9.<.4 B.d.d.I @ W h h h h h h h h h h h h h h h h h+u.I.d.d B+_+_ l.3 f+6.a R R : } h h h h h h h h h",
" h h h h h h B.d.d+' n D.E.9.9.q 0+m+0+0.J c h h h h h h h h h h h h h h h h h+r.i+0+m+C h h h+2.<+$+'.d.d+v h h h h h h h h h h",
" h h h h h h+C+a+0.i+r.] *.A+!+!+! } } } t S+! h h h h h h h h h h h h h h h.T =+! } }.6+#+# {+<.z t.i.i+b+= h h h h h h h h h h",
" h h h h h h h+.+i+i.l S.c+8 W h h h h h+y.5 ; h h h h h h h h h h h h h h h > S h h h h h h.U.E n.l+i+i.| h h h h h h h h h h h",
" h h h h h h h+E g+(+( >+-+4.].V h h h h h.T._ F h h h h h h h h h h h h h+D.| h h h h h h {+6.} >+(+(+/+y h h h h h h h h h h h",
" h h h h h h h h ' 2 2 2 $ ^.y X h h h h h h+=+p h h h h h h h h h h h h h+h _ h h h h h K...8 S 2 2 2 q h h h h h h h h h h h h",
" h h h h h h h h h+f+}+} 1+v., M N h h h h h+; } F h h h h h h h h h h h }+{ h h h h h+; W.*.> 1+}+}+B+E h h h h h h h h h h h h",
" h h h h h h h h h+D 8 8 8+D+a+A (.6 h h h h h.V./ h h h h h h h h h h.V.X h h h h h h+#.U -.{ 8 8 8+D h h h h h h h h h h h h h",
" h h h h h h h h h h.w+t+t.w+..H+| m h h h h h h+=._ h h h h h h h h h.X+; h h h h h _ { k Q.w+t+t w+; h h h h h h h h h h h h h",
" h h h h h h h h h h+C.B.B.B T+w+&+h.Y h h h h h h._ h h h h h h h h ).6 h h h h h.V.6 ( 5.T.B.B.B+C h h h h h h h h h h h h h h",
" h h h h h h h h h h h T.-.- T ' e e.Y { h h h h h.V+u h h h h h h K+l h h h h h h+#.p+9 B T.-.-.-+; h h h h h h h h h h h h h h",
" h h h h h h h h h h h+C.7.7.7 T 9+(+h m.V h h h h h K+; h h h h h I h h h h h h.6+; Q+9.T.7.7.7+C h h h h h h h h h h h h h h h",
" h h h h h h h h h h h h.w+z+z w+h.l+m+= % h h h h h h _ h h h h+! _ h h h h h.V _ W.~   w+z+z.w+; h h h h h h h h h h h h h h h",
" h h h h h h h h h h h h+C+k+k+k._+%+A B+l+! h h h h h+; K h h.6 W h h h h h+;+# h.> 3._+k+k+k T h h h h h h h h h h h h h h h h",
" h h h h h h h h h h h h h 1 e e+B+n :.j+= % _ h h h+;.V _.V+;.Y _.6.6+#+#.p { h.X d  +B e e 8+; h h h h h h h h h h h h h h h h",
" h h !.5 x h h $ 1 v $ ! x T.L.2+f.5.&+f.v+; t+>+>+>+>+>+>+n W / / / / o o o ! )+. B q.2.2.L.b+f+y./ !+f+f+f+f+f+f q h h h h h h",
" h h.T+/+r @+D+/ i+s+E+/+r+{ >.W+/ G.{+*+-./.W t+.+.+.+.+..v.6.|.|.| ` o.|+.+h+x.J.5+/.H.H >.(+*+~ j `.5.5.5.5.5.5 $ h h h h h h",
" h h h+h+|.a L Q.' h h+.+>.b+u.J.J.#.|+m.].:+>+2 W h h h h h h h h+;+r.a.6 h h A.g+>+i+0+0+u.A.l+x j L././././././+C h h h h h h",
" h h h+=+b x+a i+! h h+y+a j+{+a.]+A =+b.&.#.t c m.V h h h h h h h+;+v.a+; h+s p.t.t+A+A+r+;.A+b } r.t+|+|+|+|+| =+%.V h h h h h",
" h h+E.h.:.F+v.h i _ h h B P j.h.R., u+'.&.C+%+2.6 %.X.X.X.Y h h h+;.u x h h.k.*.: P P P }+;+$.I+=+! K+;+;+E+E+x+o+'.V h h h h h",
" h h.b.#.e {+y.# j+1 h h+= M M.>.r+e u :.P 3.j R R R R R R+-.V.V.V+E j x h+2.E+$+  R , , , , R z h v M M M M M M : z h h h h h h",
" h+y ; m l h h }+p+c+5 h h F+p+l { ^ ^ 5+-.P.s.$+p ; + n n+c K K K.V I+{+;+6 A.u.f 5.C+~ ; ;+p.6 h+x ; ;+p+p+p+c+c.6 h h h h h h",
" h h h h h h h h h h h h h h h h+; [.+.+.Q n d p+x+! _ _ _ _ _ _ _ K K h.0.E +.y Y Y.b h h h h h h h h h h h h h h h h h h h h h",
" h h h h h h h h h h h h h h h h h N Z+4+4 G.P p A.p.6.6.6.6.6.6.6.6 K+5 |.}+-+4+4 Z.p h h h h h h h h h h h h h h h h h h h h h",
" h h h h h h h h h h h h h h h h h+;+o J J.` n d+2.6+#+#+#+#+#+#+#+#+# _.= ++4.` J [+; h h h h h h h h h h h h h h h h h h h h h",
" h h h h h h h h h h h h h h h h h h I.~.c+,.] c W N N N N+l { N N N N+!+# G.D+,.~+l h h h h h h h h h h h h h h h h h h h h h h",
" h h h h h h h h h h h h h h h h h h.3 r 7.c # N c.G.G.G.G I+2+x c.G.G.G %+$+,.c r+; h h h h h h h h h h h h h h h h h h h h h h",
" h h h h h h h h h h h h h h h h h h h.X+8 -+x ..Z.Z.Z.Z+x+l.X+s.0.Z.Z.Z.Z.Y i k l h h h h h h h h h h h h h h h h h h h h h h h",
" h h h h h h h h h h h h h h h h h h h h 0.A . C C C C.0 l h h.G+2 C C C C.' N X.3 h h h h h h h h h h h h h h h h h h h h h h h",
" h h h h h h h h h h h h h h h h h h h h.Y+2+@+@+@+@+]+2 ) h h+;.0 ~+@+@+@+@.' K h h h h h h h h h h h h h h h h h h h h h h h h",
" h h h h h h h h h h h h h h h h h h h.p %+7.M.M.M.M+_.%.' h h h.K+] v.M.M.M.M ..V h h h h h h h h h h h h h h h h h h h h h h h",
" h h h h h h h h h h h h h h h h h h.V N.K++++++++ C.1.<.x.6 h.X.q.z..++++++++++ %+; h h h h h h h h h h h h h h h h h h h h h h",
" h h h h h h h h h h h h h h h h h h N.' V V V V.M r.U |.<.1 h.[.x r.%.m V V V V.F.p h h h h h h h h h h h h h h h h h h h h h h",
" h h h h h h h h h h h h h h h h h W+2 f f f f.^.'.8.8.U+:.q+s+:+j d.E.z.F f f f f+].V h h h h h h h h h h h h h h h h h h h h h",
" h h h h h h h h h h h h h h h h.6 % f+3+3+3+3+].4+^+^+1 4.)+) ]+j+^+^.< v.S+3+3+3+3 ..V h h h h h h h h h h h h h h h h h h h h",
" h h h h h h h h h h h h h h h h l++.;.;.;.; V a. +g+g.<.Z.!.! C.<+g+g. .'+7.;.;.;.; 4.Y+; h h h h h h h h h h h h h h h h h h h",
" h h h h h h h h h h h h h h h+! C.o.o.o.o.; < {.m H.).)+7+3 E.K.).) H.m+;+].^.o.o.o.o f _ h h h h h h h h h h h h h h h h h h h",
" h h h h h h h h h h h h h h {.G.o.O.O.O.O+7+s h ) ].!.!+).0 ~ b.!.!.;+l h ).M.;.O.O.O.O+].V h h h h h h h h h h h h h h h h h h",
" h h h h h h h h h h h h h.V I 4 b b b b.^ a h h h.m H.!.!.e V.!.! H.m h h h.G+q & b b b &+2+; h h h h h h h h h h h h h h h h h",
" h h h h h h h h h h h h h.X+] E E E E+3+7 K h h h.p O.!.!.!.!.!.! ] ) h h h h < f E E E E f { h h h h h h h h h h h h h h h h h",
" h h h h h h h h h h h h K.0 a a a a a a.Y h h h h h.m.!.!.!.!.! H.m h h h h h K ~.'.'.' a a ~.p h h h h h h h h h h h h h h h h",
" h h h h h h h h h h h h h h h h h h h h h h h h h h+5 s.!.!.!.! O.p h h h h h h h h h h h h h h h h h h h h h h h h h h h h h h",
" h h h h h h h h h h h h h h h h h h h h h h h h h h h a.!.!.! H.m h h h h h h h h h h h h h h h h h h h h h h h h h h h h h h h",
" h h h h h h h h h h h h h h h h h h h h h h h h h h h K O.!.! s+5 h h h h h h h h h h h h h h h h h h h h h h h h h h h h h h h",
" h h h h h h h h h h h h h h h h h h h h h h h h h h h h U.!.! a h h h h h h h h h h h h h h h h h h h h h h h h h h h h h h h h",
" h h h h h h h h h h h h h h h h h h h h h h h h h h h h+;+d O K h h h h h h h h h h h h h h h h h h h h h h h h h h h h h h h h",
" h h h h h h h h h h h h h h h h h h h h h h h h h h h h h+_ U h h h h h h h h h h h h h h h h h h h h h h h h h h h h h h h h h",
" h h h h h h h h h h h h h h h h h h h h h h h h h h h h h h.3 h h h h h h h h h h h h h h h h h h h h h h h h h h h h h h h h h",
" h h h h h h h h h h h h h h h h h h h h h h h h h h h h h h h h h h h h h h h h h h h h h h h h h h h h h h h h h h h h h h h h",
" h h h h h h h h h h h h h h h h h h h h h h h h h h h h h h h h h h h h h h h h h h h h h h h h h h h h h h h h h h h h h h h h",
" h h h h h h h h h h h h h h h h h h h h h h h h h h h h h h h h h h h h h h h h h h h h h h h h h h h h h h h h h h h h h h h h",
};